<svg version="1.1" id="Layer_1" xmlns="http://www.w3.org/2000/svg" xmlns:xlink="http://www.w3.org/1999/xlink" x="0px" y="0px"
	 width="100%" viewBox="0 0 2000 1500" enable-background="new 0 0 2000 1500" xml:space="preserve">
<path fill="#000000" opacity="1.000000" stroke="none" 
	d="
M1411.000000,1501.000000 
	C940.666809,1501.000000 470.833618,1501.000000 1.000315,1501.000000 
	C1.000210,1001.000305 1.000210,501.000580 1.000105,1.000651 
	C667.666199,1.000434 1334.332397,1.000434 2000.998901,1.000217 
	C2000.999268,500.999359 2000.999268,1000.998718 2000.999634,1500.999023 
	C1804.500000,1501.000000 1608.000000,1501.000000 1411.000000,1501.000000 
M1169.767212,1341.326050 
	C1171.645630,1341.217041 1173.524170,1341.112549 1175.402344,1340.998291 
	C1186.269775,1340.337036 1197.184692,1340.103638 1207.994141,1338.914185 
	C1226.009399,1336.931641 1244.137939,1335.255615 1261.887451,1331.764893 
	C1283.601440,1327.494385 1305.134766,1322.061035 1326.451172,1316.078857 
	C1350.633789,1309.292603 1374.019287,1300.123779 1396.877563,1289.635742 
	C1422.468384,1277.893677 1447.523071,1265.153564 1470.949951,1249.484741 
	C1485.108276,1240.015259 1499.148315,1230.309082 1512.662964,1219.954224 
	C1526.265015,1209.532349 1539.936401,1198.980103 1552.165161,1187.038696 
	C1570.261841,1169.367554 1587.612183,1150.859497 1604.319458,1131.862793 
	C1615.775757,1118.836670 1626.244873,1104.812134 1635.984009,1090.440186 
	C1647.337158,1073.686523 1658.081421,1056.436523 1667.859985,1038.722900 
	C1677.961548,1020.424194 1687.357422,1001.642517 1695.626465,982.453552 
	C1703.031616,965.269287 1708.924805,947.385254 1714.659912,929.544739 
	C1719.405151,914.783691 1723.821777,899.807800 1726.809326,884.617371 
	C1730.986084,863.379639 1734.189819,841.915588 1736.880615,820.431885 
	C1738.985474,803.626892 1740.129761,786.664001 1740.840820,769.735107 
	C1741.326660,758.170471 1740.473755,746.537170 1739.956665,734.946350 
	C1739.493774,724.570984 1739.086304,714.164490 1737.914429,703.855835 
	C1735.925659,686.360779 1734.192871,668.767944 1730.819214,651.516052 
	C1726.509033,629.475220 1721.661255,607.440674 1715.290405,585.922852 
	C1703.154785,544.933960 1686.199341,505.871582 1664.993774,468.676056 
	C1651.962402,445.818268 1637.939575,423.628540 1621.499268,403.075562 
	C1608.742310,387.127502 1595.915039,371.194733 1582.300659,355.987854 
	C1572.920044,345.509918 1562.503540,335.869293 1551.900879,326.596863 
	C1536.406738,313.046906 1520.594971,299.827728 1504.440063,287.073608 
	C1480.301025,268.015900 1454.086426,252.008698 1426.731445,238.104507 
	C1406.957275,228.053619 1386.683594,218.782959 1366.016235,210.750397 
	C1346.313965,203.092896 1325.968262,196.943619 1305.613403,191.158966 
	C1289.758667,186.653259 1273.520264,183.396820 1257.328491,180.215759 
	C1247.117798,178.209763 1236.692871,177.243073 1226.337524,176.039642 
	C1218.501587,175.128998 1210.633667,174.426453 1202.761841,173.908112 
	C1190.872803,173.125275 1178.968140,172.583542 1166.621704,171.189011 
	C1161.860107,171.127319 1157.095215,170.932297 1152.338013,171.048386 
	C1148.863525,171.133194 1145.399048,171.627533 1141.226929,171.671417 
	C1140.351685,171.774597 1139.479004,171.911224 1138.600952,171.976044 
	C1120.365601,173.322220 1102.101807,174.367538 1083.903687,176.102646 
	C1071.749634,177.261505 1059.565430,178.797073 1047.616455,181.245865 
	C1031.162720,184.617798 1014.877563,188.851303 998.594055,193.005005 
	C974.737000,199.090607 951.552307,207.302673 929.014038,217.107193 
	C911.632629,224.668381 894.576782,233.054977 877.758972,241.809891 
	C864.702881,248.606567 851.887817,256.007416 839.600647,264.103455 
	C824.982056,273.735657 810.654175,283.905975 796.910645,294.743866 
	C781.118713,307.197113 765.220703,319.745178 750.973999,333.871033 
	C732.740234,351.950073 715.899902,371.460846 698.889465,390.734467 
	C692.014893,398.523651 686.277344,407.316437 680.001282,415.680725 
	C693.858704,425.643280 707.243774,435.266205 720.628723,444.889069 
	C851.541077,261.739441 1087.709839,176.011795 1311.706543,244.558105 
	C1431.029297,281.072632 1526.447021,351.547852 1597.289917,454.137329 
	C1655.895386,539.005127 1687.216431,633.852600 1690.760620,736.832703 
	C1699.076050,978.455261 1547.019165,1198.139160 1307.728394,1269.933105 
	C1102.501465,1331.506958 860.566711,1264.099365 718.641907,1065.227539 
	C711.930176,1070.083252 705.247009,1074.980469 698.497070,1079.783813 
	C691.670959,1084.641479 684.778748,1089.406128 677.274231,1094.660522 
	C794.891907,1249.576538 948.558594,1334.736206 1144.392090,1341.816284 
	C1148.819458,1341.874268 1153.250732,1342.069824 1157.673218,1341.948364 
	C1161.473633,1341.843994 1165.264282,1341.377563 1169.767212,1341.326050 
M993.578979,605.055298 
	C988.725525,593.925415 983.710510,582.861206 979.133972,571.618591 
	C978.011108,568.860291 976.897339,567.904968 973.952271,567.931213 
	C957.789124,568.075500 941.624023,567.993103 925.459595,568.016968 
	C924.362061,568.018616 923.264954,568.253296 922.369873,568.356323 
	C922.369873,688.077148 922.369873,807.459045 922.369873,926.769897 
	C944.680969,926.769897 966.621460,926.769897 989.061890,926.769897 
	C989.061890,864.896667 989.061890,803.251282 989.061890,741.361633 
	C989.855896,741.721130 990.316711,741.779663 990.399841,741.988586 
	C998.949707,763.469421 1007.486633,784.955566 1015.989563,806.455078 
	C1023.661377,825.853027 1031.296997,845.265259 1038.943237,864.673340 
	C1046.471558,883.782166 1054.174805,902.825623 1061.368652,922.059570 
	C1062.858765,926.043640 1064.574707,927.163879 1068.617065,927.096436 
	C1083.277710,926.851746 1097.944702,927.007385 1112.609375,926.988220 
	C1114.032227,926.986328 1115.454712,926.819885 1116.604492,926.747070 
	C1116.604492,806.875671 1116.604492,687.495300 1116.604492,568.254395 
	C1094.934937,568.254395 1073.661621,568.254395 1051.843384,568.254395 
	C1051.843384,625.471130 1051.843384,682.435974 1051.843384,739.400879 
	C1049.766968,737.345825 1048.399170,735.171509 1047.409180,732.836975 
	C1033.570435,700.203186 1019.764404,667.555481 1005.994995,634.892334 
	C1001.911621,625.205994 997.966125,615.461487 993.578979,605.055298 
M631.999939,648.652222 
	C630.663879,640.966370 629.848206,633.145264 627.891052,625.620972 
	C622.721558,605.746155 612.817444,589.150513 594.813965,577.850708 
	C579.270935,568.095215 562.065735,564.258972 544.353516,563.237305 
	C526.466553,562.205566 508.496460,562.467285 490.785736,566.899475 
	C468.520630,572.471375 450.590881,583.941833 438.777161,603.769226 
	C426.792725,623.883118 422.668610,646.493164 422.247955,669.337280 
	C421.410492,714.816345 422.153259,760.322388 421.931610,805.815857 
	C421.829590,826.749084 423.177490,847.379395 428.906006,867.672913 
	C434.575653,887.757874 445.101105,904.206421 462.424896,916.077148 
	C477.823059,926.628235 495.498047,930.678589 513.550110,931.731873 
	C532.086121,932.813538 550.784424,932.927490 569.104431,928.054199 
	C595.886169,920.930115 614.447632,904.941711 624.086304,878.766663 
	C631.029419,859.911804 632.916199,840.323120 632.994446,820.442627 
	C633.027588,812.020447 633.000000,803.598022 633.000000,795.389282 
	C606.900757,795.389282 581.508057,795.389282 556.884827,795.389282 
	C555.909363,815.647949 555.369507,835.512939 553.813660,855.298096 
	C553.100891,864.361267 548.941406,872.476868 539.164551,875.147644 
	C534.826843,876.332520 530.009216,875.995117 525.413391,875.948914 
	C517.248596,875.866943 511.294678,871.871887 507.379700,864.813049 
	C503.581238,857.964294 502.060760,850.455566 502.049408,842.755310 
	C501.962524,783.931213 501.970886,725.106812 502.053314,666.282715 
	C502.063965,658.694336 502.198242,651.050537 503.094849,643.530212 
	C505.081757,626.865356 512.844360,617.447205 531.333252,618.137512 
	C542.561523,618.556824 549.389282,621.787842 552.616333,633.739441 
	C554.932129,642.316284 555.483765,651.489441 555.870422,660.437744 
	C556.392212,672.513184 556.000000,684.628113 556.000000,696.655396 
	C582.009033,696.655396 607.400940,696.655396 632.000000,696.655396 
	C632.000000,680.732056 632.000000,665.157227 631.999939,648.652222 
M862.519897,807.999756 
	C847.616455,728.069336 832.713013,648.138916 817.821350,568.271729 
	C787.341370,568.271729 757.250793,568.271729 727.459473,568.271729 
	C704.871155,687.888306 682.342590,807.188599 659.830566,926.401123 
	C660.612854,926.707581 660.917297,926.931030 661.221924,926.931458 
	C684.545837,926.965149 707.869873,926.950806 731.193542,927.033081 
	C734.496704,927.044739 734.698608,924.976746 735.027222,922.559082 
	C735.970886,915.617737 736.960571,908.680054 738.095947,901.767822 
	C740.679016,886.043030 743.463989,870.350403 745.904480,854.604065 
	C746.341614,851.783447 747.334106,850.916016 749.975586,850.968872 
	C755.304749,851.075562 760.637573,851.000061 765.968872,851.000000 
	C777.259644,850.999878 788.550415,850.999939 799.991272,850.999939 
	C804.060486,876.612793 808.057190,901.769226 812.041870,926.850220 
	C836.684998,926.850220 860.642212,926.850220 884.622559,926.850220 
	C882.063354,912.952271 879.570923,899.195984 876.988647,885.456604 
	C874.410645,871.739929 871.661743,858.054993 869.138550,844.328491 
	C866.963440,832.495667 865.000427,820.623901 862.519897,807.999756 
M200.058060,610.642151 
	C193.937149,623.503052 191.063705,637.119629 191.059158,651.297913 
	C191.056778,658.721436 191.552734,666.152222 192.025848,673.566833 
	C192.684814,683.894348 195.728531,693.627319 200.015228,702.972778 
	C206.452148,717.005737 216.545258,728.470154 227.093811,739.357605 
	C235.712051,748.252808 245.332825,756.212585 254.811752,764.229309 
	C268.033203,775.411194 281.117401,786.638733 292.479126,799.843384 
	C306.426178,816.052551 312.523071,834.379395 308.794006,855.459595 
	C307.917999,860.411682 306.509613,865.842712 301.524994,869.120056 
	C291.432953,875.755554 274.365753,872.360046 267.755768,860.362488 
	C262.223785,850.321716 259.730438,839.526855 258.985474,828.205261 
	C258.566559,821.838440 257.999664,815.481384 257.485077,808.937012 
	C255.689941,809.058411 254.031326,809.059814 252.407516,809.298340 
	C241.931671,810.836853 231.466782,812.449768 220.991745,813.993835 
	C211.637558,815.372742 202.255417,816.581116 192.941101,818.186523 
	C191.793335,818.384277 190.105392,820.614929 190.173889,821.817688 
	C190.488647,827.343750 191.573013,832.823425 191.949997,838.349060 
	C192.908920,852.404419 196.087967,865.966370 201.105499,879.053528 
	C206.317612,892.648193 214.607895,904.398621 226.029388,913.314575 
	C241.749100,925.585938 260.473663,930.539185 280.014648,931.825989 
	C290.039032,932.486145 300.196442,931.562805 310.268921,930.948792 
	C323.884918,930.118652 336.073029,924.876160 347.520508,917.800903 
	C363.646820,907.833923 374.839142,893.813538 381.473633,876.075684 
	C387.917419,858.847656 387.898499,841.140381 386.085144,823.153137 
	C384.317108,805.614868 378.395233,789.610657 368.541931,775.257080 
	C356.794312,758.143860 342.610382,743.224426 326.614868,729.810974 
	C311.944000,717.508240 298.280884,703.989563 284.363617,690.806213 
	C269.530853,676.755554 264.275299,659.276733 268.297302,639.513245 
	C269.418091,634.005798 272.719696,627.670532 277.042419,624.334656 
	C288.151794,615.761597 304.370514,620.494446 307.785187,634.775940 
	C310.271851,645.176025 310.703156,656.071472 311.969238,666.755676 
	C312.188263,668.603821 312.000244,670.500183 312.000244,672.753601 
	C335.309479,669.930664 357.582123,667.233215 380.019470,664.515808 
	C380.306671,647.780823 377.522491,631.648315 372.391724,616.148682 
	C368.189545,603.454285 361.847473,591.380737 351.643951,582.303833 
	C337.957947,570.128906 321.397705,564.025818 303.246826,563.126282 
	C287.296356,562.335876 271.276123,562.537292 255.700821,567.016174 
	C231.559540,573.958252 211.815765,586.590698 200.058060,610.642151 
M1511.072998,848.604187 
	C1504.177856,863.449097 1497.831055,878.580872 1490.252075,893.067932 
	C1480.294800,912.100708 1466.996582,928.885071 1452.082764,944.297241 
	C1445.460327,951.141113 1438.174438,957.343018 1430.715942,964.276855 
	C1435.592285,970.434937 1440.602539,976.762024 1445.856567,983.396912 
	C1450.931030,979.109619 1456.249512,975.443359 1460.543945,970.824829 
	C1471.174438,959.391602 1481.850830,947.932983 1491.578003,935.741943 
	C1510.784058,911.670715 1524.450439,884.411194 1534.950684,855.587952 
	C1547.825806,820.245728 1554.143311,783.611389 1554.384277,746.056213 
	C1554.479248,731.257935 1553.413330,716.388062 1551.836060,701.662231 
	C1550.438232,688.610779 1548.111328,675.600342 1545.276001,662.774902 
	C1540.973999,643.316162 1534.378052,624.588318 1526.241943,606.330261 
	C1517.542236,586.807739 1507.280518,568.259399 1494.535522,551.144104 
	C1487.814819,542.118591 1480.915161,533.136353 1473.239624,524.936401 
	C1465.099243,516.239502 1455.943726,508.492706 1447.183105,500.285736 
	C1442.106567,506.466339 1437.629272,511.661743 1433.527832,517.138550 
	C1432.757935,518.166321 1432.805908,521.026611 1433.642212,521.834229 
	C1438.235596,526.270081 1443.478149,530.048401 1447.951050,534.590759 
	C1453.596313,540.323608 1458.686768,546.600403 1464.067627,552.596741 
	C1476.532593,566.487732 1486.449341,582.137146 1495.104004,598.556274 
	C1509.181763,625.264465 1519.645630,653.322205 1523.982788,683.328918 
	C1526.459473,700.463562 1528.815308,717.687805 1529.737183,734.951172 
	C1530.410278,747.556396 1528.862915,760.306885 1527.911133,772.962952 
	C1527.250366,781.750000 1526.725708,790.676270 1524.717041,799.205200 
	C1520.860352,815.580872 1515.992432,831.718323 1511.072998,848.604187 
M1441.991455,754.729553 
	C1440.457520,766.199219 1439.516113,777.786743 1437.262207,789.113159 
	C1432.987305,810.593567 1424.411499,830.503174 1413.257324,849.311462 
	C1405.576050,862.263550 1396.301392,873.949707 1385.327148,884.273315 
	C1380.345337,888.959656 1375.349731,893.631409 1370.253174,898.410400 
	C1374.369019,903.978149 1378.547241,909.523804 1382.598999,915.160278 
	C1384.382568,917.641235 1386.415161,916.932983 1387.989380,915.448364 
	C1397.132446,906.826294 1406.935547,898.734436 1415.019287,889.195312 
	C1429.980103,871.540955 1441.963867,851.876465 1450.426514,830.175964 
	C1460.577271,804.146729 1466.962158,777.357849 1466.943726,749.299255 
	C1466.935425,736.878906 1467.227295,724.349121 1465.735107,712.069275 
	C1464.197510,699.415466 1461.244995,686.842773 1457.850830,674.526917 
	C1452.886597,656.515076 1445.283203,639.526855 1435.900269,623.304871 
	C1425.272827,604.931335 1411.589355,589.136597 1396.184570,574.727966 
	C1392.825317,571.585815 1389.097168,568.838074 1385.503662,565.879517 
	C1380.332275,572.645813 1375.609375,578.825317 1370.789429,585.131714 
	C1372.292480,586.708069 1373.528198,588.299500 1375.045532,589.548828 
	C1387.305298,599.643188 1397.917725,611.216675 1407.044189,624.223328 
	C1416.432861,637.603882 1423.823608,652.049133 1429.531616,667.268311 
	C1435.353149,682.790710 1439.481689,698.825684 1441.017944,715.433044 
	C1441.545044,721.132080 1442.746216,726.800293 1442.858398,732.497986 
	C1442.997925,739.585510 1442.328125,746.688965 1441.991455,754.729553 
M1328.428467,831.019592 
	C1322.622070,837.686707 1316.815674,844.353821 1310.689941,851.387695 
	C1314.053589,855.949219 1318.910767,862.536255 1324.461182,870.063354 
	C1332.524658,861.992310 1340.502197,854.478577 1347.933472,846.458557 
	C1359.000854,834.513977 1366.690308,820.352295 1372.953003,805.454041 
	C1378.890137,791.330688 1382.505981,776.583984 1384.108032,761.292480 
	C1385.889526,744.290100 1385.784180,727.313232 1382.710083,710.561646 
	C1378.451172,687.353760 1369.648560,665.831604 1355.847778,646.561279 
	C1347.610962,635.060059 1338.245483,624.555481 1326.655151,616.266541 
	C1325.776245,615.638000 1323.509766,615.364868 1323.127808,615.867798 
	C1318.552856,621.891907 1314.212769,628.094116 1311.106445,632.438293 
	C1317.155151,639.270630 1322.687988,645.491943 1328.189941,651.740479 
	C1341.287109,666.614685 1350.136230,683.706299 1355.396484,702.807983 
	C1360.503296,721.352173 1362.797119,740.225098 1359.737427,759.157288 
	C1357.634277,772.170166 1354.091309,785.148254 1349.477051,797.501343 
	C1344.932129,809.668640 1338.017944,820.897156 1328.428467,831.019592 
z"/>
<path fill="#3C78D8" opacity="1.000000" stroke="none" 
	d="
M1167.070068,171.939331 
	C1178.968140,172.583542 1190.872803,173.125275 1202.761841,173.908112 
	C1210.633667,174.426453 1218.501587,175.128998 1226.337524,176.039642 
	C1236.692871,177.243073 1247.117798,178.209763 1257.328491,180.215759 
	C1273.520264,183.396820 1289.758667,186.653259 1305.613403,191.158966 
	C1325.968262,196.943619 1346.313965,203.092896 1366.016235,210.750397 
	C1386.683594,218.782959 1406.957275,228.053619 1426.731445,238.104507 
	C1454.086426,252.008698 1480.301025,268.015900 1504.440063,287.073608 
	C1520.594971,299.827728 1536.406738,313.046906 1551.900879,326.596863 
	C1562.503540,335.869293 1572.920044,345.509918 1582.300659,355.987854 
	C1595.915039,371.194733 1608.742310,387.127502 1621.499268,403.075562 
	C1637.939575,423.628540 1651.962402,445.818268 1664.993774,468.676056 
	C1686.199341,505.871582 1703.154785,544.933960 1715.290405,585.922852 
	C1721.661255,607.440674 1726.509033,629.475220 1730.819214,651.516052 
	C1734.192871,668.767944 1735.925659,686.360779 1737.914429,703.855835 
	C1739.086304,714.164490 1739.493774,724.570984 1739.956665,734.946350 
	C1740.473755,746.537170 1741.326660,758.170471 1740.840820,769.735107 
	C1740.129761,786.664001 1738.985474,803.626892 1736.880615,820.431885 
	C1734.189819,841.915588 1730.986084,863.379639 1726.809326,884.617371 
	C1723.821777,899.807800 1719.405151,914.783691 1714.659912,929.544739 
	C1708.924805,947.385254 1703.031616,965.269287 1695.626465,982.453552 
	C1687.357422,1001.642517 1677.961548,1020.424194 1667.859985,1038.722900 
	C1658.081421,1056.436523 1647.337158,1073.686523 1635.984009,1090.440186 
	C1626.244873,1104.812134 1615.775757,1118.836670 1604.319458,1131.862793 
	C1587.612183,1150.859497 1570.261841,1169.367554 1552.165161,1187.038696 
	C1539.936401,1198.980103 1526.265015,1209.532349 1512.662964,1219.954224 
	C1499.148315,1230.309082 1485.108276,1240.015259 1470.949951,1249.484741 
	C1447.523071,1265.153564 1422.468384,1277.893677 1396.877563,1289.635742 
	C1374.019287,1300.123779 1350.633789,1309.292603 1326.451172,1316.078857 
	C1305.134766,1322.061035 1283.601440,1327.494385 1261.887451,1331.764893 
	C1244.137939,1335.255615 1226.009399,1336.931641 1207.994141,1338.914185 
	C1197.184692,1340.103638 1186.269775,1340.337036 1175.402344,1340.998291 
	C1173.524170,1341.112549 1171.645630,1341.217041 1168.942749,1341.171387 
	C1160.059204,1341.035034 1152.000000,1341.053223 1143.940918,1341.071289 
	C948.558594,1334.736206 794.891907,1249.576538 677.274231,1094.660522 
	C684.778748,1089.406128 691.670959,1084.641479 698.497070,1079.783813 
	C705.247009,1074.980469 711.930176,1070.083252 718.641907,1065.227539 
	C860.566711,1264.099365 1102.501465,1331.506958 1307.728394,1269.933105 
	C1547.019165,1198.139160 1699.076050,978.455261 1690.760620,736.832703 
	C1687.216431,633.852600 1655.895386,539.005127 1597.289917,454.137329 
	C1526.447021,351.547852 1431.029297,281.072632 1311.706543,244.558105 
	C1087.709839,176.011795 851.541077,261.739441 720.628723,444.889069 
	C707.243774,435.266205 693.858704,425.643280 680.001282,415.680725 
	C686.277344,407.316437 692.014893,398.523651 698.889465,390.734467 
	C715.899902,371.460846 732.740234,351.950073 750.973999,333.871033 
	C765.220703,319.745178 781.118713,307.197113 796.910645,294.743866 
	C810.654175,283.905975 824.982056,273.735657 839.600647,264.103455 
	C851.887817,256.007416 864.702881,248.606567 877.758972,241.809891 
	C894.576782,233.054977 911.632629,224.668381 929.014038,217.107193 
	C951.552307,207.302673 974.737000,199.090607 998.594055,193.005005 
	C1014.877563,188.851303 1031.162720,184.617798 1047.616455,181.245865 
	C1059.565430,178.797073 1071.749634,177.261505 1083.903687,176.102646 
	C1102.101807,174.367538 1120.365601,173.322220 1138.600952,171.976044 
	C1139.479004,171.911224 1140.351685,171.774597 1142.049927,171.832397 
	C1150.938599,171.975357 1159.004395,171.957336 1167.070068,171.939331 
z"/>
<path fill="#6C9FEB" opacity="1.000000" stroke="none" 
	d="
M993.768188,605.399475 
	C997.966125,615.461487 1001.911621,625.205994 1005.994995,634.892334 
	C1019.764404,667.555481 1033.570435,700.203186 1047.409180,732.836975 
	C1048.399170,735.171509 1049.766968,737.345825 1051.843384,739.400879 
	C1051.843384,682.435974 1051.843384,625.471130 1051.843384,568.254395 
	C1073.661621,568.254395 1094.934937,568.254395 1116.604492,568.254395 
	C1116.604492,687.495300 1116.604492,806.875671 1116.604492,926.747070 
	C1115.454712,926.819885 1114.032227,926.986328 1112.609375,926.988220 
	C1097.944702,927.007385 1083.277710,926.851746 1068.617065,927.096436 
	C1064.574707,927.163879 1062.858765,926.043640 1061.368652,922.059570 
	C1054.174805,902.825623 1046.471558,883.782166 1038.943237,864.673340 
	C1031.296997,845.265259 1023.661377,825.853027 1015.989563,806.455078 
	C1007.486633,784.955566 998.949707,763.469421 990.399841,741.988586 
	C990.316711,741.779663 989.855896,741.721130 989.061890,741.361633 
	C989.061890,803.251282 989.061890,864.896667 989.061890,926.769897 
	C966.621460,926.769897 944.680969,926.769897 922.369873,926.769897 
	C922.369873,807.459045 922.369873,688.077148 922.369873,568.356323 
	C923.264954,568.253296 924.362061,568.018616 925.459595,568.016968 
	C941.624023,567.993103 957.789124,568.075500 973.952271,567.931213 
	C976.897339,567.904968 978.011108,568.860291 979.133972,571.618591 
	C983.710510,582.861206 988.725525,593.925415 993.768188,605.399475 
z"/>
<path fill="#6C9FEB" opacity="1.000000" stroke="none" 
	d="
M632.000000,649.117310 
	C632.000000,665.157227 632.000000,680.732056 632.000000,696.655396 
	C607.400940,696.655396 582.009033,696.655396 556.000000,696.655396 
	C556.000000,684.628113 556.392212,672.513184 555.870422,660.437744 
	C555.483765,651.489441 554.932129,642.316284 552.616333,633.739441 
	C549.389282,621.787842 542.561523,618.556824 531.333252,618.137512 
	C512.844360,617.447205 505.081757,626.865356 503.094849,643.530212 
	C502.198242,651.050537 502.063965,658.694336 502.053314,666.282715 
	C501.970886,725.106812 501.962524,783.931213 502.049408,842.755310 
	C502.060760,850.455566 503.581238,857.964294 507.379700,864.813049 
	C511.294678,871.871887 517.248596,875.866943 525.413391,875.948914 
	C530.009216,875.995117 534.826843,876.332520 539.164551,875.147644 
	C548.941406,872.476868 553.100891,864.361267 553.813660,855.298096 
	C555.369507,835.512939 555.909363,815.647949 556.884827,795.389282 
	C581.508057,795.389282 606.900757,795.389282 633.000000,795.389282 
	C633.000000,803.598022 633.027588,812.020447 632.994446,820.442627 
	C632.916199,840.323120 631.029419,859.911804 624.086304,878.766663 
	C614.447632,904.941711 595.886169,920.930115 569.104431,928.054199 
	C550.784424,932.927490 532.086121,932.813538 513.550110,931.731873 
	C495.498047,930.678589 477.823059,926.628235 462.424896,916.077148 
	C445.101105,904.206421 434.575653,887.757874 428.906006,867.672913 
	C423.177490,847.379395 421.829590,826.749084 421.931610,805.815857 
	C422.153259,760.322388 421.410492,714.816345 422.247955,669.337280 
	C422.668610,646.493164 426.792725,623.883118 438.777161,603.769226 
	C450.590881,583.941833 468.520630,572.471375 490.785736,566.899475 
	C508.496460,562.467285 526.466553,562.205566 544.353516,563.237305 
	C562.065735,564.258972 579.270935,568.095215 594.813965,577.850708 
	C612.817444,589.150513 622.721558,605.746155 627.891052,625.620972 
	C629.848206,633.145264 630.663879,640.966370 632.000000,649.117310 
z"/>
<path fill="#6C9FEB" opacity="1.000000" stroke="none" 
	d="
M862.731750,808.384521 
	C865.000427,820.623901 866.963440,832.495667 869.138550,844.328491 
	C871.661743,858.054993 874.410645,871.739929 876.988647,885.456604 
	C879.570923,899.195984 882.063354,912.952271 884.622559,926.850220 
	C860.642212,926.850220 836.684998,926.850220 812.041870,926.850220 
	C808.057190,901.769226 804.060486,876.612793 799.991272,850.999939 
	C788.550415,850.999939 777.259644,850.999878 765.968872,851.000000 
	C760.637573,851.000061 755.304749,851.075562 749.975586,850.968872 
	C747.334106,850.916016 746.341614,851.783447 745.904480,854.604065 
	C743.463989,870.350403 740.679016,886.043030 738.095947,901.767822 
	C736.960571,908.680054 735.970886,915.617737 735.027222,922.559082 
	C734.698608,924.976746 734.496704,927.044739 731.193542,927.033081 
	C707.869873,926.950806 684.545837,926.965149 661.221924,926.931458 
	C660.917297,926.931030 660.612854,926.707581 659.830566,926.401123 
	C682.342590,807.188599 704.871155,687.888306 727.459473,568.271729 
	C757.250793,568.271729 787.341370,568.271729 817.821350,568.271729 
	C832.713013,648.138916 847.616455,728.069336 862.731750,808.384521 
M783.071289,736.224182 
	C782.366943,729.551697 781.848267,722.853394 780.922119,716.211853 
	C778.514648,698.945862 775.928101,681.704834 773.412964,664.453857 
	C773.159790,664.397827 772.906616,664.341797 772.653442,664.285767 
	C766.333130,710.700500 760.012817,757.115234 753.666748,803.718750 
	C766.912109,803.718750 779.309753,803.718750 792.450378,803.718750 
	C789.439819,781.238525 786.478699,759.126953 783.071289,736.224182 
z"/>
<path fill="#6C9FEB" opacity="1.000000" stroke="none" 
	d="
M200.273712,610.326111 
	C211.815765,586.590698 231.559540,573.958252 255.700821,567.016174 
	C271.276123,562.537292 287.296356,562.335876 303.246826,563.126282 
	C321.397705,564.025818 337.957947,570.128906 351.643951,582.303833 
	C361.847473,591.380737 368.189545,603.454285 372.391724,616.148682 
	C377.522491,631.648315 380.306671,647.780823 380.019470,664.515808 
	C357.582123,667.233215 335.309479,669.930664 312.000244,672.753601 
	C312.000244,670.500183 312.188263,668.603821 311.969238,666.755676 
	C310.703156,656.071472 310.271851,645.176025 307.785187,634.775940 
	C304.370514,620.494446 288.151794,615.761597 277.042419,624.334656 
	C272.719696,627.670532 269.418091,634.005798 268.297302,639.513245 
	C264.275299,659.276733 269.530853,676.755554 284.363617,690.806213 
	C298.280884,703.989563 311.944000,717.508240 326.614868,729.810974 
	C342.610382,743.224426 356.794312,758.143860 368.541931,775.257080 
	C378.395233,789.610657 384.317108,805.614868 386.085144,823.153137 
	C387.898499,841.140381 387.917419,858.847656 381.473633,876.075684 
	C374.839142,893.813538 363.646820,907.833923 347.520508,917.800903 
	C336.073029,924.876160 323.884918,930.118652 310.268921,930.948792 
	C300.196442,931.562805 290.039032,932.486145 280.014648,931.825989 
	C260.473663,930.539185 241.749100,925.585938 226.029388,913.314575 
	C214.607895,904.398621 206.317612,892.648193 201.105499,879.053528 
	C196.087967,865.966370 192.908920,852.404419 191.949997,838.349060 
	C191.573013,832.823425 190.488647,827.343750 190.173889,821.817688 
	C190.105392,820.614929 191.793335,818.384277 192.941101,818.186523 
	C202.255417,816.581116 211.637558,815.372742 220.991745,813.993835 
	C231.466782,812.449768 241.931671,810.836853 252.407516,809.298340 
	C254.031326,809.059814 255.689941,809.058411 257.485077,808.937012 
	C257.999664,815.481384 258.566559,821.838440 258.985474,828.205261 
	C259.730438,839.526855 262.223785,850.321716 267.755768,860.362488 
	C274.365753,872.360046 291.432953,875.755554 301.524994,869.120056 
	C306.509613,865.842712 307.917999,860.411682 308.794006,855.459595 
	C312.523071,834.379395 306.426178,816.052551 292.479126,799.843384 
	C281.117401,786.638733 268.033203,775.411194 254.811752,764.229309 
	C245.332825,756.212585 235.712051,748.252808 227.093811,739.357605 
	C216.545258,728.470154 206.452148,717.005737 200.015228,702.972778 
	C195.728531,693.627319 192.684814,683.894348 192.025848,673.566833 
	C191.552734,666.152222 191.056778,658.721436 191.059158,651.297913 
	C191.063705,637.119629 193.937149,623.503052 200.273712,610.326111 
z"/>
<path fill="#4A87E8" opacity="1.000000" stroke="none" 
	d="
M1511.308594,848.279419 
	C1515.992432,831.718323 1520.860352,815.580872 1524.717041,799.205200 
	C1526.725708,790.676270 1527.250366,781.750000 1527.911133,772.962952 
	C1528.862915,760.306885 1530.410278,747.556396 1529.737183,734.951172 
	C1528.815308,717.687805 1526.459473,700.463562 1523.982788,683.328918 
	C1519.645630,653.322205 1509.181763,625.264465 1495.104004,598.556274 
	C1486.449341,582.137146 1476.532593,566.487732 1464.067627,552.596741 
	C1458.686768,546.600403 1453.596313,540.323608 1447.951050,534.590759 
	C1443.478149,530.048401 1438.235596,526.270081 1433.642212,521.834229 
	C1432.805908,521.026611 1432.757935,518.166321 1433.527832,517.138550 
	C1437.629272,511.661743 1442.106567,506.466339 1447.183105,500.285736 
	C1455.943726,508.492706 1465.099243,516.239502 1473.239624,524.936401 
	C1480.915161,533.136353 1487.814819,542.118591 1494.535522,551.144104 
	C1507.280518,568.259399 1517.542236,586.807739 1526.241943,606.330261 
	C1534.378052,624.588318 1540.973999,643.316162 1545.276001,662.774902 
	C1548.111328,675.600342 1550.438232,688.610779 1551.836060,701.662231 
	C1553.413330,716.388062 1554.479248,731.257935 1554.384277,746.056213 
	C1554.143311,783.611389 1547.825806,820.245728 1534.950684,855.587952 
	C1524.450439,884.411194 1510.784058,911.670715 1491.578003,935.741943 
	C1481.850830,947.932983 1471.174438,959.391602 1460.543945,970.824829 
	C1456.249512,975.443359 1450.931030,979.109619 1445.856567,983.396912 
	C1440.602539,976.762024 1435.592285,970.434937 1430.715942,964.276855 
	C1438.174438,957.343018 1445.460327,951.141113 1452.082764,944.297241 
	C1466.996582,928.885071 1480.294800,912.100708 1490.252075,893.067932 
	C1497.831055,878.580872 1504.177856,863.449097 1511.308594,848.279419 
z"/>
<path fill="#4A87E8" opacity="1.000000" stroke="none" 
	d="
M1441.999634,754.257568 
	C1442.328125,746.688965 1442.997925,739.585510 1442.858398,732.497986 
	C1442.746216,726.800293 1441.545044,721.132080 1441.017944,715.433044 
	C1439.481689,698.825684 1435.353149,682.790710 1429.531616,667.268311 
	C1423.823608,652.049133 1416.432861,637.603882 1407.044189,624.223328 
	C1397.917725,611.216675 1387.305298,599.643188 1375.045532,589.548828 
	C1373.528198,588.299500 1372.292480,586.708069 1370.789429,585.131714 
	C1375.609375,578.825317 1380.332275,572.645813 1385.503662,565.879517 
	C1389.097168,568.838074 1392.825317,571.585815 1396.184570,574.727966 
	C1411.589355,589.136597 1425.272827,604.931335 1435.900269,623.304871 
	C1445.283203,639.526855 1452.886597,656.515076 1457.850830,674.526917 
	C1461.244995,686.842773 1464.197510,699.415466 1465.735107,712.069275 
	C1467.227295,724.349121 1466.935425,736.878906 1466.943726,749.299255 
	C1466.962158,777.357849 1460.577271,804.146729 1450.426514,830.175964 
	C1441.963867,851.876465 1429.980103,871.540955 1415.019287,889.195312 
	C1406.935547,898.734436 1397.132446,906.826294 1387.989380,915.448364 
	C1386.415161,916.932983 1384.382568,917.641235 1382.598999,915.160278 
	C1378.547241,909.523804 1374.369019,903.978149 1370.253174,898.410400 
	C1375.349731,893.631409 1380.345337,888.959656 1385.327148,884.273315 
	C1396.301392,873.949707 1405.576050,862.263550 1413.257324,849.311462 
	C1424.411499,830.503174 1432.987305,810.593567 1437.262207,789.113159 
	C1439.516113,777.786743 1440.457520,766.199219 1441.999634,754.257568 
z"/>
<path fill="#4A87E8" opacity="1.000000" stroke="none" 
	d="
M1328.695557,830.775024 
	C1338.017944,820.897156 1344.932129,809.668640 1349.477051,797.501343 
	C1354.091309,785.148254 1357.634277,772.170166 1359.737427,759.157288 
	C1362.797119,740.225098 1360.503296,721.352173 1355.396484,702.807983 
	C1350.136230,683.706299 1341.287109,666.614685 1328.189941,651.740479 
	C1322.687988,645.491943 1317.155151,639.270630 1311.106445,632.438293 
	C1314.212769,628.094116 1318.552856,621.891907 1323.127808,615.867798 
	C1323.509766,615.364868 1325.776245,615.638000 1326.655151,616.266541 
	C1338.245483,624.555481 1347.610962,635.060059 1355.847778,646.561279 
	C1369.648560,665.831604 1378.451172,687.353760 1382.710083,710.561646 
	C1385.784180,727.313232 1385.889526,744.290100 1384.108032,761.292480 
	C1382.505981,776.583984 1378.890137,791.330688 1372.953003,805.454041 
	C1366.690308,820.352295 1359.000854,834.513977 1347.933472,846.458557 
	C1340.502197,854.478577 1332.524658,861.992310 1324.461182,870.063354 
	C1318.910767,862.536255 1314.053589,855.949219 1310.689941,851.387695 
	C1316.815674,844.353821 1322.622070,837.686707 1328.695557,830.775024 
z"/>
<path fill="#73A0E7" opacity="1.000000" stroke="none" 
	d="
M1166.845947,171.564178 
	C1159.004395,171.957336 1150.938599,171.975357 1142.401489,171.966339 
	C1145.399048,171.627533 1148.863525,171.133194 1152.338013,171.048386 
	C1157.095215,170.932297 1161.860107,171.127319 1166.845947,171.564178 
z"/>
<path fill="#77A3E8" opacity="1.000000" stroke="none" 
	d="
M1144.166504,1341.443848 
	C1152.000000,1341.053223 1160.059204,1341.035034 1168.588745,1341.044067 
	C1165.264282,1341.377563 1161.473633,1341.843994 1157.673218,1341.948364 
	C1153.250732,1342.069824 1148.819458,1341.874268 1144.166504,1341.443848 
z"/>
<path fill="#000000" opacity="1.000000" stroke="none" 
	d="
M783.294434,736.619751 
	C786.478699,759.126953 789.439819,781.238525 792.450378,803.718750 
	C779.309753,803.718750 766.912109,803.718750 753.666748,803.718750 
	C760.012817,757.115234 766.333130,710.700500 772.653442,664.285767 
	C772.906616,664.341797 773.159790,664.397827 773.412964,664.453857 
	C775.928101,681.704834 778.514648,698.945862 780.922119,716.211853 
	C781.848267,722.853394 782.366943,729.551697 783.294434,736.619751 
z"/>
</svg>